<?xml version="1.0" encoding="utf-8"?>
<!-- Generator: Adobe Illustrator 24.3.0, SVG Export Plug-In . SVG Version: 6.00 Build 0)  -->
<svg version="1.1" xmlns="http://www.w3.org/2000/svg" xmlns:xlink="http://www.w3.org/1999/xlink" x="0px" y="0px"
	 viewBox="0 0 248.3 80.8" style="enable-background:new 0 0 248.3 80.8;" xml:space="preserve">
<style type="text/css">
	.st0{fill:#034EA1;}
	.st1{fill:#EC0677;}
	.st2{fill:#00BFF2;}
	.st3{fill:#231F20;}
</style>
<g id="Layer_2">
</g>
<g id="Layer_3">
	<g>
		<g>
			<g>
				<path class="st0" d="M12.5,56.4V43.1h6.8v13.4H12.5z"/>
				<path class="st0" d="M0.3,56.4V26.1h6.8v30.3H0.3z"/>
				<path class="st0" d="M70.3,56.4v-4.9c-1.1,1.5-2.4,2.8-4.1,3.9c-1.6,1.1-3.6,1.6-6,1.6c-1.8,0-3.5-0.3-5.1-1
					c-1.6-0.7-3.1-1.7-4.4-3c-1.3-1.3-2.3-2.9-3.1-4.9c-0.8-1.9-1.2-4.1-1.2-6.6s0.4-4.7,1.1-6.6c0.8-1.9,1.8-3.5,3.1-4.9
					c1.3-1.3,2.7-2.3,4.4-3c1.7-0.7,3.4-1,5.1-1c2.4,0,4.4,0.5,6,1.6c1.6,1,2.9,2.3,4,3.6V15.5h6.8v41H70.3z M69.8,37.7
					c-0.5-1.2-1.1-2.2-1.9-3c-0.8-0.8-1.7-1.5-2.7-1.9c-1-0.4-2.1-0.7-3.2-0.7c-1.2,0-2.2,0.2-3.3,0.6c-1,0.4-1.9,1.1-2.7,1.9
					c-0.8,0.8-1.4,1.8-1.8,3c-0.4,1.2-0.7,2.5-0.7,4c0,1.5,0.2,2.8,0.7,4c0.4,1.2,1.1,2.2,1.8,3c0.8,0.8,1.7,1.5,2.7,1.9
					c1,0.4,2.1,0.7,3.3,0.7c1.1,0,2.2-0.2,3.2-0.7c1-0.4,2-1.1,2.7-1.9s1.4-1.8,1.9-3c0.5-1.2,0.7-2.5,0.7-3.9S70.2,38.9,69.8,37.7z
					"/>
				<path class="st0" d="M90.1,49.6c1.5,1.3,3.4,1.9,5.6,1.9c1.7,0,3.1-0.3,4.4-0.9c1.2-0.6,2.4-1.5,3.6-2.6l4,3.5
					c-1.4,1.7-3.1,3-5.1,4s-4.3,1.5-7,1.5c-2.1,0-4.1-0.4-6-1.1c-1.9-0.7-3.5-1.8-4.8-3.1c-1.4-1.3-2.4-3-3.2-4.9
					c-0.8-1.9-1.2-4-1.2-6.3c0-2.1,0.4-4.1,1.1-6c0.7-1.9,1.7-3.5,3-4.9c1.3-1.4,2.8-2.5,4.6-3.3c1.8-0.8,3.7-1.2,5.8-1.2
					c2.4,0,4.4,0.4,6.2,1.3c1.8,0.9,3.3,2,4.4,3.5c1.2,1.5,2.1,3.2,2.7,5.1c0.6,1.9,0.9,4,0.9,6.1c0,0.3,0,0.6,0,0.9
					c0,0.3,0,0.6-0.1,1H87.2C87.6,46.5,88.5,48.3,90.1,49.6z M102.3,39.5c-0.1-1.1-0.4-2.1-0.7-3.1c-0.4-1-0.9-1.8-1.5-2.5
					c-0.6-0.7-1.4-1.2-2.3-1.7c-0.9-0.4-1.9-0.6-3-0.6c-2.1,0-3.8,0.7-5.2,2.2c-1.4,1.4-2.2,3.3-2.5,5.6H102.3z"/>
				<path class="st0" d="M138.8,61.9c-2.8,2.4-6.7,3.6-11.8,3.6c-4.9,0-9.4-1.2-13.2-3.5l2.5-5.1c1.6,1,3.2,1.7,4.9,2.3
					c1.7,0.6,3.6,0.8,5.6,0.8c3,0,5.3-0.8,7-2.3c1.6-1.5,2.4-3.8,2.4-6.8v-2.3c-1.2,1.6-2.7,2.9-4.3,4c-1.6,1-3.7,1.5-6.1,1.5
					c-1.8,0-3.4-0.3-5.1-0.9c-1.6-0.6-3-1.5-4.3-2.7c-1.3-1.2-2.3-2.7-3-4.4c-0.7-1.7-1.1-3.7-1.1-5.9c0-2.2,0.4-4.2,1.1-5.9
					c0.7-1.7,1.7-3.2,3-4.4c1.3-1.2,2.7-2.1,4.3-2.7c1.6-0.6,3.3-1,5-1c2.5,0,4.6,0.5,6.2,1.5c1.6,1,3,2.2,4.2,3.6v-4.5h6.8v23.6
					C142.9,55.6,141.5,59.4,138.8,61.9z M135.6,36.8c-0.5-1-1.1-1.9-1.9-2.6c-0.8-0.7-1.7-1.3-2.8-1.6c-1.1-0.4-2.2-0.6-3.3-0.6
					c-1.2,0-2.3,0.2-3.3,0.6c-1,0.4-1.9,0.9-2.7,1.6c-0.8,0.7-1.4,1.6-1.8,2.6c-0.4,1-0.6,2.1-0.6,3.3c0,1.2,0.2,2.3,0.7,3.3
					c0.4,1,1,1.9,1.8,2.6c0.7,0.7,1.6,1.3,2.7,1.7c1,0.4,2.1,0.6,3.3,0.6c1.2,0,2.3-0.2,3.3-0.6c1.1-0.4,2-0.9,2.8-1.7
					c0.8-0.7,1.4-1.6,1.9-2.6c0.5-1,0.7-2.1,0.7-3.3S136,37.8,135.6,36.8z"/>
				<path class="st0" d="M155.8,49.6c1.5,1.3,3.4,1.9,5.6,1.9c1.7,0,3.1-0.3,4.4-0.9c1.2-0.6,2.4-1.5,3.6-2.6l4,3.5
					c-1.4,1.7-3.1,3-5.1,4s-4.3,1.5-7,1.5c-2.1,0-4.1-0.4-6-1.1c-1.9-0.7-3.5-1.8-4.8-3.1c-1.4-1.3-2.4-3-3.2-4.9
					c-0.8-1.9-1.2-4-1.2-6.3c0-2.1,0.4-4.1,1.1-6c0.7-1.9,1.7-3.5,3-4.9c1.3-1.4,2.8-2.5,4.6-3.3c1.8-0.8,3.7-1.2,5.8-1.2
					c2.4,0,4.4,0.4,6.2,1.3c1.8,0.9,3.3,2,4.4,3.5c1.2,1.5,2.1,3.2,2.7,5.1c0.6,1.9,0.9,4,0.9,6.1c0,0.3,0,0.6,0,0.9
					c0,0.3,0,0.6-0.1,1h-21.8C153.3,46.5,154.3,48.3,155.8,49.6z M168,39.5c-0.1-1.1-0.4-2.1-0.7-3.1c-0.4-1-0.9-1.8-1.5-2.5
					c-0.6-0.7-1.4-1.2-2.3-1.7c-0.9-0.4-1.9-0.6-3-0.6c-2.1,0-3.8,0.7-5.2,2.2c-1.4,1.4-2.2,3.3-2.5,5.6H168z"/>
				<path class="st0" d="M184.8,56.4H178V26.8h6.8v4.6c0.5-0.7,1-1.4,1.6-2c0.6-0.6,1.2-1.2,2-1.7c0.8-0.5,1.6-0.9,2.5-1.2
					c0.9-0.3,1.9-0.4,3.1-0.4c3.4,0,6,1,7.8,3.1c1.8,2.1,2.7,4.8,2.7,8.3v18.9h-6.8V39.6c0-2.3-0.5-4.1-1.6-5.3
					c-1.1-1.2-2.6-1.9-4.6-1.9c-2,0-3.6,0.6-4.8,1.9c-1.2,1.3-1.8,3.1-1.8,5.4V56.4z"/>
				<path class="st0" d="M217.1,49.6c1.5,1.3,3.4,1.9,5.6,1.9c1.7,0,3.1-0.3,4.4-0.9c1.2-0.6,2.4-1.5,3.6-2.6l4,3.5
					c-1.4,1.7-3.1,3-5.1,4s-4.3,1.5-7,1.5c-2.1,0-4.1-0.4-6-1.1c-1.9-0.7-3.5-1.8-4.8-3.1c-1.4-1.3-2.4-3-3.2-4.9
					c-0.8-1.9-1.2-4-1.2-6.3c0-2.1,0.4-4.1,1.1-6c0.7-1.9,1.7-3.5,3-4.9c1.3-1.4,2.8-2.5,4.6-3.3c1.8-0.8,3.7-1.2,5.8-1.2
					c2.4,0,4.4,0.4,6.2,1.3c1.8,0.9,3.3,2,4.4,3.5c1.2,1.5,2.1,3.2,2.7,5.1c0.6,1.9,0.9,4,0.9,6.1c0,0.3,0,0.6,0,0.9
					c0,0.3,0,0.6-0.1,1h-21.8C214.6,46.5,215.6,48.3,217.1,49.6z M229.4,39.5c-0.1-1.1-0.4-2.1-0.7-3.1c-0.4-1-0.9-1.8-1.5-2.5
					c-0.6-0.7-1.4-1.2-2.3-1.7c-0.9-0.4-1.9-0.6-3-0.6c-2.1,0-3.8,0.7-5.2,2.2c-1.4,1.4-2.2,3.3-2.5,5.6H229.4z"/>
				<g>
					
						<rect x="27.7" y="41.2" transform="matrix(-1.836970e-16 1 -1 -1.836970e-16 84.1093 5.2308)" class="st1" width="23.5" height="6.8"/>
					<rect x="36" y="26.1" class="st0" width="6.8" height="6.8"/>
					
						<rect x="12.5" y="36.2" transform="matrix(-1 -1.224647e-16 1.224647e-16 -1 38.2205 79.2747)" class="st2" width="13.3" height="6.8"/>
					
						<rect x="12.5" y="26.1" transform="matrix(-1 -1.224647e-16 1.224647e-16 -1 48.494 58.9555)" class="st2" width="23.5" height="6.8"/>
					
						<rect x="22.5" y="46.3" transform="matrix(-1.836970e-16 1 -1 -1.836970e-16 78.9157 20.584)" class="st1" width="13.4" height="6.8"/>
					<rect x="25.7" y="36.2" class="st0" width="6.8" height="6.8"/>
				</g>
			</g>
			<rect x="0.3" y="16" class="st1" width="6.8" height="6.8"/>
		</g>
		<g>
			<path class="st3" d="M241,26.7v-0.5h3v0.5h-1.2v3.1h-0.7v-3.1H241z M247.7,26.1h0.5v3.6h-0.6v-2.4l-1,1.9h-0.4l-1-1.8v2.4h-0.6
				v-3.6h0.5l1.3,2.4L247.7,26.1z"/>
		</g>
	</g>
</g>
</svg>
